<svg width="56.1" height="56.3" xmlns="http://www.w3.org/2000/svg">

 <title/>
 <g>
  <title>background</title>
  <rect fill="none" id="canvas_background" height="58.3" width="58.1" y="-1" x="-1"/>
 </g>
 <g>
  <title>Layer 1</title>
  <path fill="#c3c5c7" id="svg_1" d="m28.090577,0.162974a28,28 0 1 0 28,28a28,28 0 0 0 -28,-28zm0,12a5,5 0 1 1 -5,5a5,5 0 0 1 5,-5zm8,30.5a1.5,1.5 0 0 1 -1.5,1.5l-13,0a1.5,1.5 0 0 1 -1.5,-1.5l0,-1a1.5,1.5 0 0 1 1.5,-1.5a1.5,1.5 0 0 0 1.5,-1.5l0,-9a1.5,1.5 0 0 0 -1.5,-1.5a1.5,1.5 0 0 1 -1.5,-1.5l0,-1a1.5,1.5 0 0 1 1.5,-1.5l10,0a1.5,1.5 0 0 1 1.5,1.5l0,13a1.5,1.5 0 0 0 1.5,1.5a1.5,1.5 0 0 1 1.5,1.5l0,1z" class="cls-1"/>
 </g>
</svg>
