<svg width="33.2" height="33.2" xmlns="http://www.w3.org/2000/svg">

 <g>
  <title>background</title>
  <rect fill="none" id="canvas_background" height="35.2" width="35.2" y="-1" x="-1"/>
 </g>
 <g>
  <title>Layer 1</title>
  <path fill="#000000" id="svg_1" fill-rule="evenodd" clip-rule="evenodd" d="m14.57125,0.113748c8,0 14.487,6.488 14.487,14.488c0,2.898 -0.853,5.597 -2.319,7.862l5.542,5.543c1.114,1.114 1.114,2.931 0,4.043l-0.201,0.201c-1.114,1.114 -2.931,1.114 -4.044,0l-5.53,-5.53c-2.279,1.497 -5.005,2.368 -7.935,2.368c-8,0 -14.488,-6.488 -14.488,-14.487c0.001,-8 6.488,-14.488 14.488,-14.488l0,0zm0,5.005c-5.236,0 -9.482,4.247 -9.482,9.483c0,5.235 4.246,9.482 9.482,9.482c5.237,0 9.483,-4.247 9.483,-9.482c0,-5.236 -4.246,-9.483 -9.483,-9.483z"/>
 </g>
</svg>
