<?xml version="1.0" standalone="no"?>
<!DOCTYPE svg PUBLIC "-//W3C//DTD SVG 20010904//EN"
 "http://www.w3.org/TR/2001/REC-SVG-20010904/DTD/svg10.dtd">
<svg version="1.0" xmlns="http://www.w3.org/2000/svg"
 width="512.000000pt" height="512.000000pt" viewBox="0 0 512.000000 512.000000"
 preserveAspectRatio="xMidYMid meet">
<metadata>
Created by potrace 1.14, written by Peter Selinger 2001-2017
</metadata>
<g transform="translate(0.000000,512.000000) scale(0.100000,-0.100000)"
fill="#000000" stroke="none">
<path d="M2440 5104 c-25 -9 -64 -30 -88 -46 -43 -30 -111 -112 -112 -135 0
-21 -16 -15 -51 17 -141 128 -367 144 -537 36 -53 -33 -128 -119 -154 -176
l-22 -47 -45 32 c-169 121 -410 56 -500 -135 -21 -44 -26 -70 -26 -130 0 -41
4 -89 8 -106 8 -31 7 -31 -35 -38 -76 -12 -184 -73 -239 -135 -28 -31 -59 -72
-69 -91 -74 -143 -63 -330 25 -459 31 -45 34 -58 55 -222 12 -96 23 -187 25
-204 3 -16 16 -124 30 -240 32 -266 34 -283 40 -325 3 -19 7 -54 10 -77 9 -79
14 -118 20 -163 3 -25 8 -61 10 -80 2 -19 9 -71 14 -115 6 -44 13 -102 16
-130 3 -27 7 -61 10 -75 2 -14 7 -47 10 -75 10 -94 137 -1125 150 -1215 3 -19
7 -53 10 -75 22 -193 37 -314 40 -334 3 -14 7 -52 10 -85 4 -34 8 -72 10 -86
2 -14 6 -50 10 -80 3 -30 8 -67 11 -83 l6 -27 1479 0 c1402 0 1479 1 1480 18
0 9 2 24 3 32 2 8 6 42 10 75 3 33 8 69 10 80 2 11 7 49 11 85 3 36 8 76 10
90 11 81 15 111 20 160 4 30 8 66 10 80 2 14 7 50 10 80 3 30 8 66 10 80 2 14
6 48 10 75 3 28 8 66 10 85 3 19 7 53 9 75 8 63 36 296 41 335 2 19 7 53 9 75
14 107 17 132 21 155 2 14 7 54 11 90 3 36 7 72 9 80 1 8 6 42 9 75 8 63 9 76
20 165 6 51 22 175 31 245 2 17 6 50 9 75 3 25 8 68 12 95 3 28 7 61 9 75 1
14 5 43 9 65 3 22 8 65 11 95 3 30 8 66 10 80 2 14 7 48 10 75 8 75 25 215 31
260 11 90 15 121 19 145 2 14 7 50 10 80 6 60 13 115 20 170 3 19 8 58 11 85
9 89 14 110 34 137 66 90 89 165 85 278 -3 93 -10 120 -48 196 -53 105 -193
211 -301 227 -48 8 -50 10 -39 44 6 15 10 62 9 104 -3 120 -63 220 -171 283
-50 30 -145 48 -205 40 -53 -8 -135 -43 -169 -73 l-24 -21 -38 69 c-142 256
-492 306 -697 100 l-40 -39 -28 55 c-33 66 -98 129 -161 157 -63 28 -183 34
-243 12z"/>
</g>
</svg>
